<?xml version="1.0" encoding="UTF-8" standalone="no"?>
<!-- Created with Inkscape (http://www.inkscape.org/) -->

<svg
   width="36.795868mm"
   height="36.796078mm"
   viewBox="0 0 36.795868 36.796077"
   version="1.1"
   id="svg5"
   inkscape:version="1.1 (c68e22c387, 2021-05-23)"
   sodipodi:docname="compass.svg"
   xmlns:inkscape="http://www.inkscape.org/namespaces/inkscape"
   xmlns:sodipodi="http://sodipodi.sourceforge.net/DTD/sodipodi-0.dtd"
   xmlns="http://www.w3.org/2000/svg"
   xmlns:svg="http://www.w3.org/2000/svg">
  <sodipodi:namedview
     id="namedview7"
     pagecolor="#000000"
     bordercolor="#666666"
     borderopacity="1.0"
     inkscape:pageshadow="2"
     inkscape:pageopacity="0"
     inkscape:pagecheckerboard="0"
     inkscape:document-units="mm"
     showgrid="false"
     inkscape:object-paths="true"
     inkscape:snap-intersection-paths="true"
     inkscape:snap-midpoints="true"
     inkscape:snap-smooth-nodes="true"
     inkscape:zoom="2.8284271"
     inkscape:cx="15.026019"
     inkscape:cy="97.934289"
     inkscape:window-width="3840"
     inkscape:window-height="2050"
     inkscape:window-x="2928"
     inkscape:window-y="-12"
     inkscape:window-maximized="1"
     inkscape:current-layer="layer2"
     fit-margin-top="0"
     fit-margin-left="0"
     fit-margin-right="0"
     fit-margin-bottom="0" />
  <defs
     id="defs2">
    <rect
       x="122.30592"
       y="99.999607"
       width="6.7037605"
       height="4.2832101"
       id="rect53527" />
    <inkscape:path-effect
       effect="ruler"
       id="path-effect4800"
       is_visible="true"
       lpeversion="1"
       unit="mm"
       mark_distance="3.18"
       mark_length="2.1"
       minor_mark_length="0.5"
       major_mark_steps="3"
       shift="3"
       offset="0"
       mark_dir="right"
       border_marks="both" />
    <inkscape:path-effect
       effect="ruler"
       id="path-effect4638"
       is_visible="true"
       lpeversion="1"
       unit="pc"
       mark_distance="0.36"
       mark_length="0.4"
       minor_mark_length="0.1"
       major_mark_steps="5"
       shift="25"
       offset="0"
       mark_dir="right"
       border_marks="both" />
  </defs>
  <g
     inkscape:label="Layer 1"
     inkscape:groupmode="layer"
     id="layer1"
     transform="translate(-0.06156511,-0.24712179)"
     style="display:none">
    <path
       style="fill:none;stroke:#535353;stroke-width:0.1;stroke-miterlimit:4;stroke-dasharray:none"
       d="m 18.785078,0.24851024 -0.0814,2.93019606 m -1.5465,-2.84880206 0.24419,2.93019706 m 0.0814,-2.93019706 0.16279,2.93019706 m 0.16279,-2.93019706 0.0814,2.84880206 m 0.24419,-2.84880206 0.0814,2.84880206 m 0.89534,-2.84880206 -0.0814,2.84880206 m 0.40697,-2.84880206 -0.16278,2.93019706 m 0.48836,-2.93019706 -0.24418,2.93019706 m -2.60462,-2.84880206 0.32558,3.74414006 m 1.30231,-3.74414006 c 0,0.75315806 -0.0138,1.54126706 -0.0236,2.27904106 -0.009,0.699186 0.0236,1.213997 0.0236,1.953465 m 1.54649,-4.23250606 -0.32558,3.74414006 m -4.15111,-3.66274604 0.40697,2.84880204 m -0.0814,-2.84880204 0.32558,2.76740804 m 0,-2.76740804 0.32557,2.60461904 m 0,-2.60461904 0.24418,2.76740804 m 3.58136,-2.76740804 -0.32558,2.76740804 m 0.56976,-2.76740804 -0.32558,2.84880204 m 0.65116,-2.84880204 -0.32558,2.76740804 m 0.65116,-2.68601404 -0.40698,2.76740804 m -5.94178,-2.68601304 0.48836,2.76740804 m -0.16279,-2.76740804 0.43839,2.27904104 0.37556,1.953465 m 5.61621,-4.23250604 c -0.40812,1.20555604 -0.55886,2.99860004 -0.81395,4.31390004 m 1.05813,-4.31390004 -0.56976,2.84880204 m -7.08131,-2.76740804 0.65116,2.84880204 m 7.32549,-2.84880204 -0.56976,2.84880204 m -7.08131,-2.76740804 0.56976,2.68601404 m -1.22092,-2.60461904 0.73255,2.68601304 m 7.89525,-2.68601304 -0.65115,2.68601304 m -8.54641,-2.60461904 0.73255,2.76740804 m -0.40697,-2.76740804 0.97673,3.58135104 m 8.13944,-3.58135104 -0.65116,2.60461904 m 1.05813,-2.60461904 -0.97673,3.58135104 m -9.19756,-3.499957 0.81394,2.767408 m 9.60453,-2.767408 -0.81394,2.767408 m 1.13952,-2.686013 -0.81394,2.767408 m -10.25569,-2.60462 0.89534,2.60462 m 10.49987,-2.60462 -0.89534,2.686014 m -10.74405,-2.604619 c 0.15928,0.688449 0.69478,1.799393 0.56976,2.279042 -0.33437,-0.527485 -0.65498,-1.44541 -0.81395,-2.116254 m 12.12776,-0.162788 c -0.14594,0.63083 -0.46517,1.238699 -0.58498,1.87207 -0.14578,0.770625 -0.26933,1.539655 -0.55454,2.279042 m -11.39521,-4.069718 0.97673,2.686014 m 12.20915,-2.686014 -1.05812,2.767408 m 0.73255,-2.686014 -0.81395,2.116254 m -12.69752,-1.953465 1.13953,2.686014 m -0.81395,-2.686014 1.05813,2.604619 m 12.77891,-2.604619 -1.05812,2.604619 m 1.3023,-2.523224 -1.13951,2.686013 m -13.51147,-2.523225 1.13952,2.523225 m 13.83704,-2.523225 -1.22091,2.604619 m -13.99983,-2.523224 c 0.43961,1.071605 1.35261,2.412447 1.54649,3.499957 m 13.99983,-3.499957 -1.62789,3.499957 m -14.24401,-3.418563 1.22092,2.604619 m 14.89516,-2.604619 -1.30231,2.686013 m -15.13934,-2.523224 c 0.255,0.436973 0.77153,2.078347 1.3023,2.034858 m 15.46493,-2.034858 c -0.32965,0.564762 -1.16972,1.724257 -0.89534,2.360436 l 1.13952,-2.197648 m -17.2556004,0.08139 1.3023104,2.44183 m -1.5464904,-2.279042 1.3023104,2.441831 m 16.44166,-2.441831 -1.79068,3.825535 M 9.3433476,2.8531243 11.459598,6.5158703 m 16.19747,-3.662746 -1.22091,1.953464 M 9.0177676,3.0159133 10.482868,5.3763493 m 17.41839,-2.360436 -1.4651,2.44183 M 8.7735776,3.1787013 10.238678,5.5391383 m 17.90676,-2.360437 -1.4651,2.360437 m -18.2323304,-2.197648 1.54649,2.360436 m 18.4765204,-2.360436 -1.54649,2.360436 m -18.7207104,-2.279041 1.5465,2.360436 m 18.9648804,-2.360436 -1.54649,2.44183 m -13.99983,-2.279042 0.24418,0.406972 m 10.33709,-0.406972 -0.24419,0.488366 M 7.9596376,3.6670683 c 0.48031,0.778187 0.97796,1.568281 1.30231,2.44183 m 3.8255404,-2.44183 c 0.0505,0.504335 0.37709,1.221086 0.56976,1.790675 m 15.30213,-1.709281 -2.11625,2.930196 m 2.44183,-2.930196 -1.70928,2.44183 m -19.8602204,-2.279041 1.3837,1.87207 m -1.70928,-1.709282 1.70928,2.197648 m 15.8719004,-2.197648 0.24418,0.244183 m 4.3139,-0.244183 -1.70928,2.279042 m -20.6741604,-2.116253 1.70928,2.197647 m 20.9183504,-2.197647 -1.79068,2.279042 m -21.0811404,-2.034859 1.70929,2.116253 m 17.1742004,-2.116253 -0.24418,0.406972 m 4.47669,-0.406972 -1.79068,2.197647 m -17.01142,-2.116253 0.16279,0.325578 m -4.7208704,-0.244183 2.8488,3.337168 M 30.261688,4.6438003 c -0.40567,0.46446 -1.56659,1.436048 -1.30231,2.034858 l 1.5465,-1.790675 m -4.55809,-0.162789 -0.16279,0.325577 m 0.48837,-0.325577 -0.24418,0.406972 m -19.6160404,-0.244183 1.87207,2.116253 m -2.11626,-2.034859 1.87208,2.197648 m 22.7090204,-2.197648 -1.95347,2.279042 m -10.47439,-2.027826 c 0.4589,-0.25938 0.64725,0.769429 0.26518,0.955382 -0.43757,0.212985 -0.61176,-0.759466 -0.26518,-0.955382 m -12.3974204,0.07436 1.87207,2.034859 m 23.1973904,-2.034859 -1.95346,2.116254 m -23.3601804,-1.953465 1.95346,2.034859 m 23.6043604,-2.034859 -2.03485,2.116253 M 9.2619476,5.6205313 10.075898,6.6786573 M 5.4364076,5.7019253 c 0.79865,0.79865 1.91001,2.082068 2.76741,2.686014 m 23.2787904,-2.686014 -2.60462,2.60462 m -23.6857604,-2.360437 2.03486,1.953465 m 24.4997004,-1.953465 -2.11625,2.034859 m 2.36043,-1.87207 -2.19764,2.034859 m -24.6624904,-1.87207 1.87207,1.790675 m 5.7910404,-1.613569 c 0.41951,-0.183992 0.84903,0.787254 0.45044,0.921962 -0.38988,0.131777 -0.8911,-0.728643 -0.45044,-0.921962 m 15.77846,-0.09571 c 0.04,0.528657 -0.75265,1.223683 -1.13952,1.627887 m -22.6276304,-1.546493 2.11625,1.872071 m 25.2322504,-1.872071 -2.19764,1.953465 m -5.61621,-1.709282 c 1.04697,-0.1168 0.13478,1.560656 -0.32558,0.651155 M 4.6224676,6.6786593 c 0.42795,0.409577 1.27076,1.424239 1.87207,1.383704 m 22.4648404,-1.383704 -0.32557,0.325578 m 3.66274,-0.325578 -2.11625,1.872071 m -25.8834004,-1.627888 1.22091,0.917722 2.19765,1.8496862 M 11.540988,7.2484203 c 0.33079,-0.362449 0.518,-0.255416 0.76446,0.128603 0.21285,0.331763 0.15546,0.584167 -0.27609,0.603946 m 17.17421,1.7092812 2.27904,-1.9057672 1.13952,-0.861641 m -13.67425,0.162789 -0.0814,0.976732 c -0.44938,-0.253136 -0.49171,-0.62112 -0.81395,-0.895337 -0.10012,0.338763 -0.0814,0.556249 -0.0814,1.058126 m -13.8370404,-1.058126 2.11625,1.709281 M 25.461358,7.2627453 c 0.58628,-0.224729 0.30686,0.825339 -0.0853,0.934245 -0.5941,0.165068 -0.24679,-0.806944 0.0853,-0.934245 m 5.0445,1.694956 2.27904,-1.790675 m -3.17438,0.08139 0.16279,0.162789 m -25.8020104,0 2.19764,1.7092811 M 10.645638,7.8181763 c 0.40607,-0.764862 1.35887,0.658399 0.40697,0.73255 m 21.89508,-1.139521 c -0.511,0.378728 -1.38428,1.397866 -2.03486,1.302309 M 3.7271076,7.5739933 5.9247576,9.2832749 M 33.191868,7.5739933 30.912828,9.3646695 m -0.89534,-1.7092812 0.16279,0.162788 m -26.5345604,0.162789 2.11625,1.5464932 M 33.680228,8.4693313 c -0.54444,0.310113 -1.06944,0.7794325 -1.62788,1.0542202 -0.3211,0.157986 -0.41373,0.03435 -0.65116,-0.158882 l 1.87207,-1.3837042 m -29.8717204,0.162789 3.01159,2.1162527 M 33.517448,8.1437543 c -0.57945,0.459471 -1.36832,0.9540231 -1.87207,1.3837042 M 6.4131276,8.2251483 l -0.24419,0.244183 m 0.24419,-0.244183 0.24418,0.244183 m 23.8485504,-0.244183 0.16278,0.162789 m -27.4298904,0.08139 2.27904,1.5464927 m 0.65115,-1.5464927 -0.16278,0.162789 m -3.0116,0.08139 2.27905,1.4650977 M 18.459488,8.7135063 c 0,0.8595242 0.007,0.8898032 2.5e-4,1.8720697 -0.0132,1.865884 -2.5e-4,3.74878 -2.5e-4,5.61621 m 13.0231,-5.941787 2.44183,-1.5464927 m -2.9302,0.162789 -0.32558,0.3255774 M 2.9131676,9.0390843 l 2.27904,1.3837027 m 26.4531704,0.0814 2.36043,-1.4650977 m -31.2554304,0.2441831 1.95347,1.2209146 c -0.5661,0.172556 -1.5994,-0.6358515 -2.11626,-0.9767315 M 34.168598,9.2832724 32.215138,10.504187 c 0.55844,0.170277 1.60371,-0.6376425 2.11625,-0.9767315 m -16.11608,0.08139 0.24418,-0.2441827 0.32558,0.3255777 m 12.20915,-0.08139 0.40697,-0.2441834 m -0.89533,0.8953369 1.05812,-0.7325485 m 0.24419,0.162789 -0.40698,0.3255765 M 2.4248076,9.8530335 l 2.36043,1.3023085 m 27.1857104,0 2.52323,-1.3023085 m -13.59286,8.8719835 h 4.55809 c 0.38613,0 1.35529,-0.173044 1.65694,0.08367 0.27894,0.237345 -0.0179,1.302879 -0.0788,1.625607 -0.34145,1.810455 -1.25453,3.354343 -2.55488,4.639153 -3.09153,3.05473 -8.11559,3.101125 -11.47661,0.497808 -3.8324504,-2.968534 -4.2711704,-8.720347 -1.22735,-12.381058 1.22279,-1.470633 2.87119,-2.472516 4.72731,-2.919616 0.57904,-0.139428 1.41146,-0.3730295 1.95346,-0.09198 m 0.0814,-0.162788 c 0.53769,0.01644 1.29286,0.117859 1.87207,0.245323 1.10387,0.24288 2.17054,0.736863 3.09298,1.385494 1.61666,1.136754 2.79915,2.828698 3.35988,4.717942 0.19779,0.666376 0.19087,1.380774 0.38426,2.034859 m -24.9880604,-8.302224 2.44183,1.30231 m 27.4298904,0 2.60462,-1.30231 m -32.7205304,0.244183 2.52323,1.30231 m 27.6740804,0 2.68601,-1.30231 m -30.1973004,0.162789 0.32558,0.162789 m 26.6973404,0.0814 0.48837,-0.244184 m -30.2787004,0.162789 2.11625,1.058127 c -0.60757,0.219602 -1.71617,-0.485518 -2.27904,-0.813944 m 2.8488,-0.244183 1.79068,1.058127 M 32.296518,10.666973 30.505848,11.7251 m 1.87207,0.162789 2.60462,-1.220916 M 7.5800676,10.999306 c 0.37376,-0.225543 1.13048,0.468669 0.67883,0.714968 -0.36196,0.197463 -1.07099,-0.478354 -0.67883,-0.714968 m 27.5652504,-0.08815 c -0.89208,0.507657 -2.53258,1.298484 -3.49995,1.627887 m -30.0345204,-1.383704 2.60462,1.220916 m 31.0926404,-1.220916 -2.68601,1.220916 m -10.49987,-0.569761 0.32557,-0.08139 c -0.0943,-0.210974 -0.19461,-0.325578 0.0814,-0.325578 m 6.83713,0.08139 c 0.0778,0.148626 0.22741,0.313043 0.0777,0.533052 -0.14253,0.209428 -0.45907,0.0993 -0.49106,-0.126731 -0.0855,-0.604109 0.97104,-0.666945 1.06456,-0.08074 m 2.68601,0.813944 2.76741,-1.139521 m -33.8600504,0.08139 2.44183,1.058126 m 0,-0.895337 0.40697,0.162788 m -3.09298,-0.08139 2.60462,1.058127 M 22.773428,12.05068 c 0.18941,-0.179963 0.22595,-0.04412 0.32558,0.162789 l 0.0814,-0.08139 v -0.0814 l 0.0814,-0.08139 m 9.52314,0.895338 2.76741,-1.058127 m -31.5810104,0.08139 1.30231,0.651155 m 1.73671,-0.563982 c 0.39159,-0.244427 1.12519,0.489913 0.75908,0.70455 -0.38027,0.222939 -1.18347,-0.439692 -0.75908,-0.70455 m -5.72504,0.15701 2.60462,0.976733 m 28.9763904,0 2.76741,-0.976733 m -12.37194,0.244183 0.16279,-0.162788 v 0.244183 m 6.67279,-0.178987 c 0.61982,-0.102638 0.2441,0.736375 -0.24109,0.783991 -0.62104,0.06096 -0.18713,-0.713096 0.24109,-0.783991 m -6.26582,0.09759 -0.16279,0.325578 M 1.1225476,12.457649 c 1.41976,0.328426 2.79851,1.125277 4.2325,1.465098 M 23.587388,12.457649 h 0.16279 m 9.68592,0.56976 0.73255,-0.028 1.62789,-0.541761 m -34.7553904,0.244183 2.68601,0.895338 m 29.3833704,0.08139 2.7674,-0.976732 M 6.3317776,13.352982 c -0.0341,-0.925942 1.56798,-0.05706 0.65116,0.406972 m -6.02318001,-0.73255 2.68601001,0.813944 m 29.6275404,0.08139 2.68602,-0.895338 m -2.52323,0.162789 -1.87207,0.732549 M 0.87835759,13.352978 3.5643776,14.166921 m 29.7089304,0 2.76741,-0.813943 m -2.68601,1.058126 2.8488,-0.813943 M 0.87835759,13.678551 3.4015876,14.4111 M 0.71556759,13.922734 C 1.7313176,14.359903 3.2729776,14.688085 4.2969276,14.899466 M 36.203508,13.922734 c -0.58213,0.25045 -1.70505,0.431308 -2.27904,0.732549 0.60435,0.241171 1.76219,-0.266729 2.44183,-0.406972 m -35.73212041,0 2.68601001,0.651155 M 0.55277759,14.573888 3.2387976,15.143649 m 29.3019704,-0.244183 1.3837,-0.244183 m -0.32558,0.56976 2.76741,-0.651155 m -2.36044,0.162789 -0.48836,0.162789 m -33.04611041,0 2.68601001,0.56976 m 30.4414904,0 2.8488,-0.56976 m -36.05769041,0.244183 2.76740001,0.56976 m 30.4414904,0 2.9302,-0.56976 M 0.30859759,15.550621 c 1.25153001,0.05388 3.16015001,0.575621 4.39530001,0.732549 m 27.4298904,0 c 1.32046,-0.104348 3.1616,-0.675899 4.47669,-0.732549 M 0.30859759,15.794804 2.9946076,16.28317 m 30.8484604,0 2.84881,-0.488366 M 0.22720759,16.120381 2.9132176,16.527353 m 30.8484604,0 2.9302,-0.406972 M 0.22720759,16.445959 2.9946076,16.771536 m 30.8484604,0 2.9302,-0.325577 m -20.42998,0.244183 v 0.406971 m 2.11625,-0.40697 v 0.406972 m 0.65116,-0.406972 0.16279,0.325577 m 0.48836,-0.325577 0.16279,0.406972 M 0.14580759,16.771537 2.9132176,17.01572 m 13.5928604,-0.0814 c 0.34983,-0.0315 0.74476,0.465576 0.81394,-0.162788 m 3.09299,0 0.24418,0.325577 -0.32558,0.08139 m 13.59286,-0.08139 2.8488,-0.325577 m -19.12767,0.08139 c 0.11485,0.3421 0.32965,0.285938 0.48837,0 m 0.97673,0.08139 0.32557,0.244183 M 0.14580759,17.097105 c 0.64509,0.05087 1.68602001,0.316136 2.36044001,0.08139 m 30.5228804,0.244183 3.74414,-0.325577 m -18.15094,0.08139 h 0.16279 m -16.1974804,0.162789 1.30231,0.08139 m 1.41116,0.0022 c 0.37469,-0.262578 1.26004,0.06699 0.84044,0.416413 -0.40425,0.336566 -1.26655,-0.117859 -0.84044,-0.416413 m -5.15530001,-0.0022 2.76741001,0.162788 m 31.0112504,0 2.93019,-0.162788 m -36.79024041,0.325577 2.76741001,0.08139 m 31.0926404,0.08139 2.93019,-0.162788 m -18.39512,0.08139 c 0.15026,0.283334 0.48511,0.429681 0.59687,0.734095 0.43733,1.190881 -1.97699,0.837955 -1.05398,-0.227171 0.10834,-0.125022 0.23336,-0.187126 0.37572,-0.262741 m 13.02309,0.325577 c -0.0671,-0.601097 0.71579,-0.592306 0.54893,-0.17337 -0.20577,0.516692 -1.11527,0.223753 -1.03729,-0.314996 m -30.84846041,0.162789 2.84880001,0.08139 m 31.0112504,0 2.93019,-0.08139 M 0.06441759,18.399389 H 2.8318276 m 31.0926404,0 h 2.93019 m -34.4298004,0.0814 c 0.31663,0.488447 1.56447,0.244183 2.11625,0.244183 m 0.56976,0.325577 c 0.0267,-0.812234 0.60121,-0.32517 1.13952,-0.244183 M 34.412828,18.480789 c 0.33665,0.519296 1.84766,0.244183 2.44183,0.244183 m -36.79024041,0 H 2.3434576 m 6.75573,0 h 6.9185204 m 1.22092,0 h 0.48836 m 1.4651,0 h 0.48837 m 7.65107,0 h 0.40697 m 4.55808,0 h 2.03486 m -3.24218,0.246462 c 0.38141,-0.236858 1.25282,0.147405 0.77406,0.471598 -0.33738,0.228475 -1.34447,-0.11737 -0.77406,-0.471598 M 0.06441759,18.969134 H 2.8318276 m 31.0926404,0 h 2.93019 M 0.06441759,19.294711 2.9132176,19.213321 m 31.0112504,0 2.93019,0.08139 M 0.06441759,19.620288 2.8318276,19.538898 m 2.52322,0.569761 c -0.19772,-0.196079 -0.27424,-0.693887 0.16436,-0.548924 0.2538,0.08392 0.46589,0.365868 0.64958,0.548924 l 0.0814,-0.651155 m 12.2091504,0 v 0.569761 m 15.46493,-0.569761 2.93019,0.162789 M 0.06441759,19.94587 2.9132176,19.783082 m 31.0112504,0 2.93019,0.162788 M 0.14580759,20.352842 3.8899476,20.027265 m 29.1391804,0 c 1.07717,0 2.6572,0.244183 3.66275,0.244183 M 0.14580759,20.597025 2.9132176,20.352842 m 31.0112504,0 2.8488,0.244183 M 0.14580759,20.922603 2.9132176,20.597025 m 30.9298504,0 2.84881,0.325578 M 0.22720759,21.24818 2.9946076,20.841208 m 30.7670704,0 2.9302,0.406972 M 0.38995759,21.573775 3.0759676,21.085409 m 15.3835304,0 v 6.999914 m 13.75565,-6.999914 c 1.32738,0.449378 3.03942,0.638864 4.39529,0.813943 m -2.8488,-0.813943 2.8488,0.488366 m -36.30188041,0.325577 2.36044001,-0.40046 2.03486,-0.332089 M 0.38995759,22.22493 3.1573576,21.655169 m 30.5228804,0 2.84881,0.569761 m -2.9302,-0.325578 2.8488,0.569761 m -35.97630041,0 2.68601001,-0.488366 M 0.47134759,22.79469 3.2387576,22.22493 m 30.3600904,0 2.76741,0.56976 M 0.55273759,23.120267 3.3201476,22.469113 m 0.97674,0 c -1.07743,0.406483 -2.50175,0.820292 -3.66275001,0.976732 m 31.90659041,-0.976732 2.11625,0.579202 1.54649,0.39753 m -2.68601,-0.976732 2.8488,0.651154 M 0.79692759,23.771422 3.4829376,22.957479 m 29.8717304,0 2.7674,0.813943 M 3.5643376,23.201662 0.87831759,24.097 M 33.273268,23.201662 36.040678,24.097 m -30.6856704,-0.651155 -1.95346,0.813943 0.40697,0.08139 m 27.7554704,-0.895338 3.41857,1.267799 0.81394,0.278694 M 0.95971759,24.341178 3.6457276,23.527234 m 29.6275404,0 2.68602,0.813944 M 6.9014976,23.69002 c 0.26763,0.04273 0.66516,0.367007 0.23173,0.541028 -0.25565,0.102638 -0.48999,-0.05942 -0.72009,-0.134056 l 0.0814,0.56976 m -5.37202,0 2.60461,-0.895338 m 26.1550204,0.09133 c 0.36172,-0.212032 1.14603,0.456948 0.67883,0.711794 -0.33819,0.184521 -1.09931,-0.46525 -0.67883,-0.711794 m 3.30974,-0.09133 2.60462,0.895338 M 1.1225176,24.992329 c 0.61072,-0.19909 1.57884,-0.702677 2.27904,-0.732549 m 29.5461504,0 2.68601,0.976732 M 3.4829376,24.341175 c -0.58548,0.398913 -1.48514,0.700479 -2.19765,0.895337 m 31.4996204,-0.813943 2.76741,1.139521 m -34.1856304,0 2.52322,-0.976732 m 25.3136504,0.651154 c -0.0369,-0.257206 0.13763,-0.665073 0.4405,-0.366925 0.24687,0.243043 0.24785,1.01751 0.61762,0.366925 m -26.1275804,-0.162788 -0.40698,0.08139 0.40698,-0.406972 m 28.5694104,0 2.68602,1.139521 M 7.0642876,24.829537 c 0.40486,0.001 0.50318,0.01351 0.73255,0.08139 -0.19681,0.255659 -0.3071,0.335914 -0.56976,0.488366 l -0.16279,-0.56976 m -2.60462,0.651155 -0.56976,0.08139 1.30231,-0.651155 m 26.5345604,0 c 0.43961,0.149684 0.9703,0.619085 1.38371,0.325577 l -0.48837,-0.244183 m -31.0926404,0.895338 2.19764,-0.895338 m 0,0.162789 -2.11625,0.976732 M 33.110488,25.2365 l 2.19764,0.895338 m -33.5344704,0.325578 2.11625,-0.895338 m 28.4880304,-0.08139 2.60462,1.220915 M 8.0394776,25.619709 c 0.6562,-0.147486 0.23368,0.700154 -0.24109,0.77284 -0.67387,0.103207 -0.16067,-0.682574 0.24109,-0.77284 m 25.0710104,-0.05763 c 0.61713,0.239381 1.46477,0.658318 2.03485,0.895338 m -4.63947,-0.813944 3.82553,2.197648 m -28.0810504,-2.116253 -1.62789,1.058126 h 0.40698 m 23.6043604,-1.058126 1.05812,0.56976 m 2.52323,-0.56976 2.68601,1.302309 M 1.9364476,26.7016 l 2.03486,-0.976732 m -1.87207,1.302309 2.44183,-1.220915 m 24.1741204,0.162789 v 0.162788 m 3.41856,-0.162788 2.60462,1.302309 m -30.1159104,-1.220841 -2.44183,1.302309 m 0.24419,0.244184 2.36043,-1.30231 m 27.3485004,0 2.36044,1.30231 m -2.68601,-0.895338 2.44183,1.465098 m -31.6624104,-0.325577 1.95347,-1.139521 m 0.24418,0.162788 -2.11625,1.30231 m 0.24418,0.244183 2.36044,-1.465098 m 26.3717704,0 2.36043,1.465098 m -27.5926804,-1.30231 -2.9302,2.03486 m 27.0229304,-2.03486 2.93019,2.03486 m -1.95346,-2.03486 2.44183,1.546493 m -30.9298604,0 2.27905,-1.383704 m -2.03486,1.709282 2.27904,-1.546493 m 25.8834004,0 2.27904,1.546493 m -25.9647904,-1.30231 -3.33717,2.767408 M 29.203558,27.678406 c 0.98112,0.90364 2.43768,1.967871 3.33717,2.848803 m -1.5465,-2.686014 2.27904,1.627887 m -27.5112904,-1.546493 -2.11625,1.546493 m 2.36044,-1.383704 -0.40698,0.162788 -0.0814,-0.08139 m 25.3950404,-0.08139 2.27904,1.709281 m -2.52323,-1.546492 2.19765,1.709281 m -29.1391804,-0.244183 1.87207,-1.383704 h 0.56976 m 24.4183104,0.162789 2.19765,1.709281 M 5.7619676,28.573752 3.9712976,30.03885 m 2.27904,-1.465098 -0.0814,0.406972 m 4.8836704,-0.244183 c 0.98308,-0.03687 -0.0652,0.67191 -0.32558,0.813943 l 0.40697,0.325578 m 14.58139,-1.088161 c 0.42993,-0.06837 0.80833,0.833234 0.38402,0.945558 -0.49162,0.130231 -0.815,-0.877024 -0.38402,-0.945558 m 5.19744,-0.05136 -0.16279,0.162788 m -26.6159504,1.383705 1.87207,-1.465099 m -1.4651,1.87207 2.19765,-1.790676 m 23.4415704,0 2.19765,1.790676 m -24.3369004,-1.627887 -2.60463,2.60462 m 23.4415804,-2.60462 2.60462,2.60462 m -1.4651,-2.60462 2.03486,1.87207 m -25.2322504,-1.790675 -1.95346,1.790675 m 20.0230104,-0.56976 c 0.74239,-0.11851 0.29301,-0.786188 -0.24419,-0.488366 -0.15212,-0.371647 -0.004,-0.535005 0.32558,-0.732549 m 4.80227,0.08139 2.11625,1.953464 m -1.3837,-1.953464 -0.16279,0.162789 m -18.39513,-0.08139 c 0.27048,0.276253 0.14277,0.523203 -0.0814,0.895338 m -4.8836604,-0.813943 -1.87207,1.790675 m 4.3139,-1.709281 c -0.40136,0.419344 -1.2665,1.234997 -1.05813,1.709281 l 0.24419,-0.325577 m 18.9648804,-1.383704 2.68601,3.255774 m -0.65115,-3.255774 2.03486,1.953465 M 7.2270676,29.550485 5.1922076,31.50395 m 7.8159004,-1.620887 c 0.60899,-0.28073 0.28374,0.734095 -0.0159,0.881338 -0.59458,0.292124 -0.34259,-0.716026 0.0159,-0.881338 m 10.74202,-0.0884 0.56976,0.976733 m -16.6858504,-0.895338 -1.95346,2.034859 m 23.6043604,-2.034859 1.95346,2.034859 m -1.46509,-1.953465 -0.16279,0.162789 m -0.56976,-0.0814 1.87207,2.034859 m -23.1160004,-1.953464 -1.87207,2.034859 m 17.5811804,-1.953465 0.16279,-0.08139 m 5.12784,0.08139 1.95347,2.116253 m -22.7090204,-2.034858 -1.87208,2.034858 m 22.4648504,-1.953464 1.87207,2.197647 m -22.9532104,-2.116253 0.16279,0.162789 m 0.48836,-0.08139 -1.79067,2.034858 m 22.7090204,-1.953464 -0.16279,0.162789 m -18.88348,-0.08139 -2.1162604,3.011591 M 26.924508,30.690005 c 0.486,0.853176 1.45296,2.175183 2.11625,3.011591 M 7.9596176,30.7714 l 0.16279,0.244183 M 28.226808,30.7714 l 1.79068,2.197647 m -18.55791,-2.116253 -2.4418304,3.581352 m 16.5230504,-3.581352 2.11625,3.662746 m 0.40697,-3.662746 1.70929,2.279042 m -11.37071,-2.088091 c 0.35618,-0.127871 0.53166,0.930826 0.12771,1.032325 -0.47087,0.118428 -0.47217,-0.908687 -0.12771,-1.032325 m 1.04412,-0.0073 c 0.41178,-0.163277 0.58938,0.828188 0.20911,1.010674 -0.39078,0.187451 -0.71326,-0.810687 -0.20911,-1.010674 M 8.1224076,31.015615 c -0.45573,0.476157 -0.98601,1.160439 -1.4651,1.709281 m 2.19765,-1.709281 -1.70928,2.116253 m 9.8487104,-1.953465 c 0.43563,-0.04965 0.48788,0.130475 0.48837,0.732549 m 10.33708,-0.813943 1.70928,2.279042 m -21.1625304,-2.197648 -1.4651,1.790676 m 2.11626,-1.790676 -1.62789,2.197648 m 20.1858004,-2.116253 1.70928,2.279041 m -20.0230104,-2.197647 -1.62789,2.197647 m 10.6626604,-2.03486 h 0.32558 m 8.54641,0 1.54649,2.44183 m -18.9648804,-2.360436 -1.5465,2.360436 m 18.7207104,-2.197647 1.54649,2.360436 m -18.5579104,-2.279042 -1.4651,2.279042 m 18.2323304,-2.279042 1.54649,2.441831 m -17.98815,-2.360436 -1.5464904,2.360436 m 4.9650604,-2.360436 -1.38371,3.906929 m 11.06963,-3.906929 1.38371,3.906929 m -14.32541,-3.825535 -0.16279,0.325577 m 2.03486,-0.325577 c -0.52865,0.928954 -1.00278,2.422703 -1.62788,3.337168 m 14.08122,-3.337168 0.56976,1.220915 0.16279,-0.162788 1.05812,2.197647 m -0.0814,-3.255774 1.4651,2.441831 m -1.87207,-2.116254 1.3837,2.441831 m -16.52305,-2.360436 -1.3837104,2.360436 m 11.3952104,-2.360436 0.81395,4.3139 m -10.58127,-4.232506 v 0.488366 l 0.24418,-0.406972 m 4.72088,-0.08139 -0.81395,4.232506 m 10.25569,-4.232506 1.30231,2.604619 m -1.05813,-2.604619 1.30231,2.441831 m -16.68584,-2.279042 -1.0581204,1.87207 m 9.1975604,-1.87207 v 4.313902 m -6.91852,-4.232508 -1.22092,2.441831 m 14.89517,-2.441831 0.16279,0.244183 m -14.56959,-0.08139 -1.0581304,2.034859 m 2.2790404,-2.034859 -1.13952,2.604619 m 3.66275,-2.604619 -0.89534,3.499957 m 8.54641,-3.499957 c 0.3215,1.01222 0.59385,2.499783 0.97673,3.499957 m 1.54649,-3.499957 1.13952,2.604619 m -14.81377,-2.523225 -1.05812,2.116253 m 2.27904,-2.116253 -1.05813,2.60462 m 13.26728,-2.523225 1.05812,2.523225 m -1.3023,-2.441831 1.05812,2.604619 m -12.77891,-2.523225 -1.05813,2.523225 m 1.30231,-2.44183 -0.97673,2.523225 m 5.37203,-2.523225 c -0.19087,1.028092 -0.32273,2.640676 -0.32558,3.662747 m 2.8488,-3.662747 c 0.18346,0.98829 0.32265,2.611374 0.32558,3.662747 m 3.41856,-3.662747 0.89534,2.686013 m -0.32558,-2.686013 0.97673,2.523225 m 0.24419,-2.523225 0.89534,1.87207 m -12.77892,-1.790676 -0.89533,2.686014 m 10.74405,-2.686014 0.89534,2.767408 m -10.49987,-2.604619 -0.89534,2.604619 m 1.13952,-2.604619 -0.81394,2.604619 m 9.93011,-2.604619 0.81394,2.686013 m -9.68593,-2.604619 -0.73255,2.686014 m 9.36035,-2.60462 0.73255,2.60462 m -1.54649,-2.523225 0.56976,2.686013 m -7.89525,-2.604619 -0.56976,2.604619 m 1.13952,-2.604619 -0.56976,2.767408 m 7.08131,-2.767408 0.56976,2.767408 m 0,-2.767408 0.56976,2.604619 m -7.89525,-2.523225 -0.56977,2.523225 m 1.05813,-2.523225 -0.48836,2.767408 m 1.05812,-2.686013 -0.40697,2.767408 m 5.29063,-2.767408 0.40698,2.767408 m 0.16278,-2.767408 0.48837,2.686013 m -5.12785,-2.604619 -0.24418,2.767407 m 3.49996,-2.767407 0.32558,2.767407 m -4.15111,-2.686012 -0.16279,0.325577 m 0.48836,-0.325577 -0.32557,2.686012 m 1.13952,-2.686012 -0.24419,2.848802 m 0.48837,-2.848802 -0.16279,2.848802 m 0.73255,-2.848802 -0.0814,2.848802 m 0.56976,-2.848802 0.0814,0.56976 0.24418,-0.56976 m 0.24419,0 0.16278,2.848802 m 0.97674,-2.848802 0.24418,2.686012 m 0,-2.686012 0.32558,2.686012 m -3.09299,-2.604618 -0.0814,2.767408 m 1.70928,-2.767408 0.24418,2.767408 m -3.58135,-2.441831 -0.24418,2.279041 m 3.41856,-2.197646 h 0.16279 m -0.73255,0.08139 v 2.279042 m 0.24418,-2.279042 0.0814,2.279042"
       id="path833" />
  </g>
  <g
     inkscape:groupmode="layer"
     id="layer2"
     inkscape:label="Layer 2">
    <path
       id="path1545"
       style="fill:#ffffff;stroke:#ffffff;stroke-width:0.1;stroke-linecap:butt;stroke-linejoin:miter;stroke-opacity:1;stroke-miterlimit:4;stroke-dasharray:none"
       d="m 18.397934,17.651866 v 1.492348"
       sodipodi:nodetypes="cc" />
    <path
       id="path1841"
       style="fill:#ffffff;stroke:#ffffff;stroke-width:0.1;stroke-linecap:butt;stroke-linejoin:miter;stroke-opacity:1;stroke-miterlimit:4;stroke-dasharray:none"
       d="M 19.144108,18.39804 H 17.65176"
       sodipodi:nodetypes="cc" />
    <path
       style="fill:#ffffff;fill-opacity:1;stroke:#ffffff;stroke-width:0.1;stroke-linecap:square;stroke-linejoin:miter;stroke-miterlimit:8.1;stroke-dasharray:none;stroke-opacity:1"
       d="m 18.409722,19.188273 0,-18.65791131 0.754241,2.57062751 -0.754241,0.00784"
       id="path1876"
       sodipodi:nodetypes="cccc" />
    <path
       style="opacity:0.5;fill:#ffffff;stroke:#ffffff;stroke-width:0.0999996;stroke-linecap:square;stroke-miterlimit:4;stroke-dasharray:none;stop-color:#000000"
       d="m 36.61962,18.398061 h -2.1"
       id="path85783" />
    <path
       style="opacity:0.5;fill:#ffffff;stroke:#ffffff;stroke-width:0.0999996;stroke-linecap:square;stroke-miterlimit:4;stroke-dasharray:none;stop-color:#000000"
       d="m 36.619617,18.387761 -2.1,0.0012"
       id="path85781" />
    <path
       style="opacity:0.5;fill:#ffffff;stroke:#ffffff;stroke-width:0.0999996;stroke-linecap:square;stroke-miterlimit:4;stroke-dasharray:none;stop-color:#000000"
       d="m 36.341054,15.224039 -0.492356,0.08709"
       id="path85779" />
    <path
       style="opacity:0.5;fill:#ffffff;stroke:#ffffff;stroke-width:0.0999996;stroke-linecap:square;stroke-miterlimit:4;stroke-dasharray:none;stop-color:#000000"
       d="m 35.517396,12.156736 -0.469755,0.17126"
       id="path85777" />
    <path
       style="opacity:0.5;fill:#ffffff;stroke:#ffffff;stroke-width:0.0999996;stroke-linecap:square;stroke-miterlimit:4;stroke-dasharray:none;stop-color:#000000"
       d="m 32.355555,10.329977 1.81811,-1.0509394"
       id="path85775" />
    <path
       style="opacity:0.5;fill:#ffffff;stroke:#ffffff;stroke-width:0.0999996;stroke-linecap:square;stroke-miterlimit:4;stroke-dasharray:none;stop-color:#000000"
       d="M 32.350682,6.6783661 31.967821,6.9999518"
       id="path85773" />
    <path
       style="opacity:0.5;fill:#ffffff;stroke:#ffffff;stroke-width:0.0999996;stroke-linecap:square;stroke-miterlimit:4;stroke-dasharray:none;stop-color:#000000"
       d="M 30.103827,4.4337272 29.782619,4.8169054"
       id="path85771" />
    <path
       style="opacity:0.5;fill:#ffffff;stroke:#ffffff;stroke-width:0.0999996;stroke-linecap:square;stroke-miterlimit:4;stroke-dasharray:none;stop-color:#000000"
       d="M 26.452212,4.4324572 27.501358,2.6133107"
       id="path85769" />
    <path
       style="opacity:0.5;fill:#ffffff;stroke:#ffffff;stroke-width:0.0999996;stroke-linecap:square;stroke-miterlimit:4;stroke-dasharray:none;stop-color:#000000"
       d="M 24.622335,1.2724195 24.451539,1.7423434"
       id="path85767" />
    <path
       style="opacity:0.5;fill:#ffffff;stroke:#ffffff;stroke-width:0.0999996;stroke-linecap:square;stroke-miterlimit:4;stroke-dasharray:none;stop-color:#000000"
       d="m 21.554223,0.45178841 -0.08661,0.49244191"
       id="path85765" />
    <path
       style="opacity:0.5;fill:#ffffff;stroke:#ffffff;stroke-width:0.0999996;stroke-linecap:square;stroke-miterlimit:4;stroke-dasharray:none;stop-color:#000000"
       d="m 18.390223,0.17634745 8.89e-4,2.09999985"
       id="path85763" />
    <path
       style="opacity:0.5;fill:#ffffff;stroke:#ffffff;stroke-width:0.0999996;stroke-linecap:square;stroke-miterlimit:4;stroke-dasharray:none;stop-color:#000000"
       d="m 15.226463,0.45446426 0.08702,0.49236848"
       id="path85761" />
    <path
       style="opacity:0.5;fill:#ffffff;stroke:#ffffff;stroke-width:0.0999996;stroke-linecap:square;stroke-miterlimit:4;stroke-dasharray:none;stop-color:#000000"
       d="m 12.159044,1.2776899 0.171194,0.4697793"
       id="path85759" />
    <path
       style="opacity:0.5;fill:#ffffff;stroke:#ffffff;stroke-width:0.0999996;stroke-linecap:square;stroke-miterlimit:4;stroke-dasharray:none;stop-color:#000000"
       d="M 9.2811564,2.6210156 10.33184,4.4392741"
       id="path85757" />
    <path
       style="opacity:0.5;fill:#ffffff;stroke:#ffffff;stroke-width:0.0999996;stroke-linecap:square;stroke-miterlimit:4;stroke-dasharray:none;stop-color:#000000"
       d="M 6.6802279,4.4436323 7.0017597,4.8265387"
       id="path85755" />
    <path
       style="opacity:0.5;fill:#ffffff;stroke:#ffffff;stroke-width:0.0999996;stroke-linecap:square;stroke-miterlimit:4;stroke-dasharray:none;stop-color:#000000"
       d="m 4.4352678,6.6901707 0.383133,0.3212618"
       id="path85753" />
    <path
       style="opacity:0.5;fill:#ffffff;stroke:#ffffff;stroke-width:0.0999996;stroke-linecap:square;stroke-miterlimit:4;stroke-dasharray:none;stop-color:#000000"
       d="M 2.6144892,9.2923831 4.4334878,10.341785"
       id="path85751" />
    <path
       style="opacity:0.5;fill:#ffffff;stroke:#ffffff;stroke-width:0.0999996;stroke-linecap:square;stroke-miterlimit:4;stroke-dasharray:none;stop-color:#000000"
       d="M 1.2731921,12.171217 1.743092,12.34208"
       id="path85749" />
    <path
       style="opacity:0.5;fill:#ffffff;stroke:#ffffff;stroke-width:0.0999996;stroke-linecap:square;stroke-miterlimit:4;stroke-dasharray:none;stop-color:#000000"
       d="m 0.45212859,15.239215 0.49242969,0.08668"
       id="path85747" />
    <path
       style="opacity:0.5;fill:#ffffff;stroke:#ffffff;stroke-width:0.0999996;stroke-linecap:square;stroke-miterlimit:4;stroke-dasharray:none;stop-color:#000000"
       d="M 0.17624165,18.403176 2.2762416,18.402584"
       id="path85745" />
    <path
       style="opacity:0.5;fill:#ffffff;stroke:#ffffff;stroke-width:0.0999996;stroke-linecap:square;stroke-miterlimit:4;stroke-dasharray:none;stop-color:#000000"
       d="m 0.45391249,21.56698 0.49238074,-0.08695"
       id="path85743" />
    <path
       style="opacity:0.5;fill:#ffffff;stroke:#ffffff;stroke-width:0.0999996;stroke-linecap:square;stroke-miterlimit:4;stroke-dasharray:none;stop-color:#000000"
       d="M 1.2767057,24.634516 1.7465092,24.463388"
       id="path85741" />
    <path
       style="opacity:0.5;fill:#ffffff;stroke:#ffffff;stroke-width:0.0999996;stroke-linecap:square;stroke-miterlimit:4;stroke-dasharray:none;stop-color:#000000"
       d="M 2.6196257,27.512592 4.4380324,26.462165"
       id="path85739" />
    <path
       style="opacity:0.5;fill:#ffffff;stroke:#ffffff;stroke-width:0.0999996;stroke-linecap:square;stroke-miterlimit:4;stroke-dasharray:none;stop-color:#000000"
       d="M 4.4418758,30.113778 4.8248276,29.7923"
       id="path85737" />
    <path
       style="opacity:0.5;fill:#ffffff;stroke:#ffffff;stroke-width:0.0999996;stroke-linecap:square;stroke-miterlimit:4;stroke-dasharray:none;stop-color:#000000"
       d="M 6.6880978,32.35905 7.0094136,31.975962"
       id="path85735" />
    <path
       style="opacity:0.5;fill:#ffffff;stroke:#ffffff;stroke-width:0.0999996;stroke-linecap:square;stroke-miterlimit:4;stroke-dasharray:none;stop-color:#000000"
       d="M 9.2900534,34.1802 10.339712,32.361349"
       id="path85733" />
    <path
       style="opacity:0.5;fill:#ffffff;stroke:#ffffff;stroke-width:0.0999996;stroke-linecap:square;stroke-miterlimit:4;stroke-dasharray:none;stop-color:#000000"
       d="M 12.168711,35.5219 12.33964,35.052024"
       id="path85731" />
    <path
       style="opacity:0.5;fill:#ffffff;stroke:#ffffff;stroke-width:0.0999996;stroke-linecap:square;stroke-miterlimit:4;stroke-dasharray:none;stop-color:#000000"
       d="m 15.236591,36.343396 0.08675,-0.492418"
       id="path85729" />
    <path
       style="opacity:0.5;fill:#ffffff;stroke:#ffffff;stroke-width:0.0999996;stroke-linecap:square;stroke-miterlimit:4;stroke-dasharray:none;stop-color:#000000"
       d="m 18.400512,36.619729 -2.96e-4,-2.1"
       id="path85727" />
    <path
       style="opacity:0.5;fill:#ffffff;stroke:#ffffff;stroke-width:0.0999996;stroke-linecap:square;stroke-miterlimit:4;stroke-dasharray:none;stop-color:#000000"
       d="M 21.56436,36.342504 21.47747,35.850111"
       id="path85725" />
    <path
       style="opacity:0.5;fill:#ffffff;stroke:#ffffff;stroke-width:0.0999996;stroke-linecap:square;stroke-miterlimit:4;stroke-dasharray:none;stop-color:#000000"
       d="M 24.632011,35.520143 24.46095,35.050315"
       id="path85723" />
    <path
       style="opacity:0.5;fill:#ffffff;stroke:#ffffff;stroke-width:0.0999996;stroke-linecap:square;stroke-miterlimit:4;stroke-dasharray:none;stop-color:#000000"
       d="m 26.460106,32.359074 1.050171,1.818555"
       id="path85721" />
    <path
       style="opacity:0.5;fill:#ffffff;stroke:#ffffff;stroke-width:0.0999996;stroke-linecap:square;stroke-miterlimit:4;stroke-dasharray:none;stop-color:#000000"
       d="M 30.11172,32.355745 29.790296,31.972748"
       id="path85719" />
    <path
       style="opacity:0.5;fill:#ffffff;stroke:#ffffff;stroke-width:0.0999996;stroke-linecap:square;stroke-miterlimit:4;stroke-dasharray:none;stop-color:#000000"
       d="M 32.357308,30.10984 31.974266,29.78847"
       id="path85717" />
    <path
       style="opacity:0.5;fill:#ffffff;stroke:#ffffff;stroke-width:0.0999996;stroke-linecap:square;stroke-miterlimit:4;stroke-dasharray:none;stop-color:#000000"
       d="m 32.360108,26.458226 1.818703,1.049915"
       id="path85715" />
    <path
       style="opacity:0.5;fill:#ffffff;stroke:#ffffff;stroke-width:0.0999996;stroke-linecap:square;stroke-miterlimit:4;stroke-dasharray:none;stop-color:#000000"
       d="M 35.52092,24.629686 35.051068,24.45869"
       id="path85713" />
    <path
       style="opacity:0.5;fill:#ffffff;stroke:#ffffff;stroke-width:0.0999996;stroke-linecap:square;stroke-miterlimit:4;stroke-dasharray:none;stop-color:#000000"
       d="m 36.342848,21.561922 -0.492405,-0.08682"
       id="path85711" />
    <path
       style="opacity:0.5;fill:none;stroke:#ffffff;stroke-width:0.0999996;stroke-linecap:square;stroke-miterlimit:4;stroke-dasharray:none;stop-color:#000000"
       d="m 36.619627,18.398039 c 0,10.063563 -8.15813,18.221693 -18.221693,18.221693 -10.0635632,0 -18.22169308,-8.15813 -18.22169308,-18.221693 0,-10.0635633 8.15812988,-18.22169317 18.22169308,-18.22169317 10.063563,0 18.221693,8.15812987 18.221693,18.22169317 h -2.1"
       id="circle4323" />
    <path
       style="fill:#ffffff;stroke:#ffffff;stroke-width:0.264583px;stroke-linecap:butt;stroke-linejoin:miter;stroke-opacity:1"
       d="M 0.12805684,18.426285 2.2762416,17.922684 v 0.9598 z"
       id="path5031" />
    <text
       xml:space="preserve"
       style="font-size:1.05833px;line-height:1.25;font-family:sans-serif;letter-spacing:0px;word-spacing:0px;stroke-width:0.264583"
       x="26.5613"
       y="4.2433176"
       id="text9430"><tspan
         sodipodi:role="line"
         id="tspan9428"
         style="stroke-width:0.264583"
         x="26.5613"
         y="4.2433176" /></text>
    <text
       xml:space="preserve"
       style="font-style:normal;font-variant:normal;font-weight:bold;font-stretch:normal;font-size:2.16308px;line-height:1.25;font-family:sans-serif;-inkscape-font-specification:'sans-serif Bold';letter-spacing:0px;word-spacing:0px;fill:#ffffff;stroke:none;stroke-width:0.264582"
       x="30.005541"
       y="19.201302"
       id="text36771"><tspan
         sodipodi:role="line"
         id="tspan36769"
         style="font-style:normal;font-variant:normal;font-weight:bold;font-stretch:normal;font-family:sans-serif;-inkscape-font-specification:'sans-serif Bold';fill:#ffffff;stroke:none;stroke-width:0.264582"
         x="30.005541"
         y="19.201302">09</tspan></text>
    <text
       xml:space="preserve"
       style="font-style:normal;font-variant:normal;font-weight:bold;font-stretch:normal;font-size:2.16308px;line-height:1.25;font-family:sans-serif;-inkscape-font-specification:'sans-serif Bold';letter-spacing:0px;word-spacing:0px;fill:#ffffff;stroke:none;stroke-width:0.264582"
       x="3.7554204"
       y="19.14015"
       id="text37647"><tspan
         sodipodi:role="line"
         id="tspan37645"
         style="font-style:normal;font-variant:normal;font-weight:bold;font-stretch:normal;font-family:sans-serif;-inkscape-font-specification:'sans-serif Bold';fill:#ffffff;stroke:none;stroke-width:0.264582"
         x="3.7554204"
         y="19.14015">27</tspan></text>
    <text
       xml:space="preserve"
       style="font-style:normal;font-variant:normal;font-weight:bold;font-stretch:normal;font-size:2.16308px;line-height:1.25;font-family:sans-serif;-inkscape-font-specification:'sans-serif Bold';letter-spacing:0px;word-spacing:0px;fill:#ffffff;stroke:none;stroke-width:0.264582"
       x="16.872112"
       y="32.826431"
       id="text37647-3"><tspan
         sodipodi:role="line"
         id="tspan37645-8"
         style="font-style:normal;font-variant:normal;font-weight:bold;font-stretch:normal;font-family:sans-serif;-inkscape-font-specification:'sans-serif Bold';fill:#ffffff;stroke:none;stroke-width:0.264582"
         x="16.872112"
         y="32.826431">18</tspan></text>
    <text
       xml:space="preserve"
       transform="scale(0.26458333)"
       id="text53525"
       style="font-size:4px;line-height:1.25;font-family:sans-serif;letter-spacing:0px;word-spacing:0px;white-space:pre;shape-inside:url(#rect53527)"><tspan
         x="122.30664"
         y="107.93252"
         id="tspan138219">1</tspan></text>
    <g
       aria-label="12"
       transform="matrix(2.0438639,0,0,2.0438639,-37.149314,-28.859765)"
       id="text66813"
       style="font-size:1.05833px;line-height:1.25;letter-spacing:0px;word-spacing:0px;white-space:pre;fill:#ffffff;stroke-width:0.129452">
      <path
         d="m 32.845243,26.738288 -0.360719,-0.208239 0.03927,-0.06803 0.138738,0.08009 0.257843,-0.446647 -0.138738,-0.08009 0.03514,-0.06086 q 0.0282,0.01628 0.063,0.0304 0.03507,0.01368 0.05679,0.01429 0.02705,6.96e-4 0.0485,-0.0096 0.02216,-0.01048 0.04074,-0.03853 l 0.06937,0.04005 -0.346719,0.600601 0.136052,0.07854 z"
         id="path137822"
         style="stroke-width:0.129452" />
      <path
         d="m 33.465983,27.096634 -0.451123,-0.260427 0.054,-0.09354 q 0.07024,-0.01315 0.140488,-0.0263 0.07069,-0.01289 0.134413,-0.02921 0.133983,-0.03364 0.193919,-0.06408 0.0602,-0.03089 0.09301,-0.08772 0.02997,-0.05192 0.0123,-0.100899 -0.01696,-0.04917 -0.07828,-0.08457 -0.04073,-0.02351 -0.09643,-0.03658 -0.05571,-0.01307 -0.11796,-0.0096 l -0.0045,-0.0026 0.05426,-0.09398 q 0.04082,0.0027 0.10112,0.02019 0.06075,0.01777 0.110427,0.04644 0.102487,0.05916 0.13199,0.142428 0.02976,0.08282 -0.01907,0.167402 -0.02196,0.03804 -0.05092,0.06547 -0.02826,0.02725 -0.06411,0.04593 -0.03347,0.01767 -0.07269,0.03083 -0.03877,0.01342 -0.0912,0.02671 -0.07501,0.01935 -0.151612,0.0342 -0.07634,0.01441 -0.142348,0.02642 l 0.358481,0.206947 z"
         id="path137824"
         style="stroke-width:0.129452" />
    </g>
    <g
       aria-label="03"
       transform="matrix(2.0438639,0,0,2.0438639,-28.546244,-0.96996366)"
       id="text88026"
       style="font-size:1.05833px;line-height:1.25;letter-spacing:0px;word-spacing:0px;fill:#ffffff;stroke-width:0.129452">
      <path
         d="m 26.419997,3.7177108 q 0.179508,0.1035266 0.231137,0.2084668 0.05144,0.1042344 -0.01672,0.2224143 -0.06919,0.1199704 -0.186257,0.1264266 -0.116808,0.00601 -0.293183,-0.095711 -0.177717,-0.1024939 -0.230052,-0.2072447 -0.05278,-0.1050089 0.01563,-0.2236364 0.06919,-0.1199704 0.187342,-0.1252044 0.117962,-0.00594 0.292098,0.094489 z m 0.135335,0.2349419 q -0.02722,-0.03658 -0.07292,-0.070092 -0.04588,-0.034218 -0.114824,-0.073977 -0.06804,-0.039242 -0.121536,-0.062338 -0.05323,-0.023543 -0.09745,-0.027565 -0.0435,-0.00421 -0.07671,0.013027 -0.03295,0.01679 -0.05748,0.059317 -0.02427,0.042079 -0.02282,0.079902 0.0017,0.037375 0.02778,0.073886 0.02435,0.034325 0.07426,0.070867 0.05017,0.036094 0.113739,0.072755 0.06983,0.040275 0.119677,0.062458 0.04984,0.022184 0.09629,0.027497 0.04344,0.00536 0.07728,-0.010909 0.0341,-0.016722 0.05992,-0.061487 0.02427,-0.042079 0.02282,-0.079902 -0.0015,-0.037823 -0.02804,-0.073439 z"
         id="path137794"
         style="stroke-width:0.129452" />
      <path
         d="m 26.735367,3.1998454 q 0.03164,-0.010386 0.06874,-0.00748 0.0371,0.0029 0.08321,0.029496 0.04566,0.026333 0.07416,0.064841 0.0285,0.038508 0.0394,0.084765 0.01197,0.051646 8.6e-4,0.106084 -0.0113,0.053732 -0.04254,0.1078982 -0.03201,0.055509 -0.07642,0.1014816 -0.04396,0.046231 -0.07951,0.071664 l -0.09356,-0.053958 0.0039,-0.00671 q 0.04701,-0.023593 0.09327,-0.06552 0.04625,-0.041928 0.07388,-0.089826 0.01627,-0.028202 0.02519,-0.065407 0.0089,-0.037205 0.0019,-0.067486 -0.0078,-0.031951 -0.02587,-0.055483 -0.01779,-0.023979 -0.05405,-0.044891 -0.03581,-0.020654 -0.0658,-0.02244 -0.03018,-0.00249 -0.05523,0.00991 -0.02549,0.012141 -0.04694,0.037951 -0.02189,0.025552 -0.041,0.058678 l -0.02323,0.040289 -0.07431,-0.042856 0.01807,-0.031336 q 0.03924,-0.068043 0.03428,-0.1245963 -0.0052,-0.057259 -0.05977,-0.088756 -0.02417,-0.013941 -0.04802,-0.013972 -0.02429,-2.89e-4 -0.04651,0.011352 -0.02274,0.012536 -0.03987,0.03189 -0.01713,0.019353 -0.03313,0.047108 -0.02453,0.042527 -0.03693,0.099203 -0.0124,0.056676 -0.0092,0.1152099 l -0.0026,0.00448 -0.09356,-0.053958 q 0.0027,-0.040819 0.02014,-0.101129 0.01729,-0.061016 0.04595,-0.1107048 0.02814,-0.048794 0.05852,-0.080786 0.03038,-0.031992 0.06738,-0.050625 0.04008,-0.019839 0.08007,-0.018846 0.03999,9.925e-4 0.08073,0.024486 0.05551,0.032013 0.07442,0.095416 0.01872,0.062697 -0.0013,0.122164 l 0.0063,0.00361 q 0.01597,-0.019422 0.04362,-0.040464 0.0272,-0.0213 0.05531,-0.030739 z"
         id="path137796"
         style="stroke-width:0.129452" />
    </g>
    <g
       aria-label="06"
       transform="matrix(2.0438639,0,0,2.0438639,-36.477606,-8.2123818)"
       id="text91207"
       style="font-size:1.05833px;line-height:1.25;letter-spacing:0px;word-spacing:0px;fill:#ffffff;stroke-width:0.129452">
      <path
         d="m 32.685001,9.6948661 q 0.103704,0.1794058 0.09595,0.2961014 -0.0076,0.1159895 -0.125676,0.1842635 -0.119902,0.06931 -0.224516,0.01637 -0.104166,-0.0532 -0.206059,-0.2294702 -0.10267,-0.1776162 -0.09562,-0.2945006 0.0068,-0.1173319 0.125348,-0.1858642 0.119902,-0.069308 0.224844,-0.01477 0.105131,0.053832 0.205731,0.2278692 z m -2.55e-4,0.2711329 q -0.0053,-0.045291 -0.02811,-0.09716 -0.02263,-0.052575 -0.06246,-0.1214745 -0.03931,-0.068004 -0.07409,-0.1147506 -0.03433,-0.047005 -0.07061,-0.072592 -0.03557,-0.025398 -0.07295,-0.027071 -0.03693,-0.00193 -0.07943,0.022637 -0.04205,0.024309 -0.05971,0.057792 -0.0172,0.033224 -0.01288,0.077878 0.0039,0.0419 0.02889,0.098502 0.02541,0.056343 0.06213,0.1198737 0.04034,0.069794 0.07242,0.1139254 0.03208,0.04413 0.06965,0.07196 0.03494,0.02636 0.07238,0.02919 0.03789,0.0026 0.08263,-0.02329 0.04205,-0.02431 0.05971,-0.05779 0.01765,-0.03348 0.01243,-0.07762 z"
         id="path137799"
         style="stroke-width:0.129452" />
      <path
         d="m 33.346003,9.4691633 q 0.0587,0.1015589 0.02884,0.2047759 -0.02968,0.1025109 -0.126765,0.1586298 -0.04921,0.028447 -0.09827,0.036511 -0.04906,0.00806 -0.09726,-0.00407 -0.05994,-0.014893 -0.116398,-0.064032 -0.05601,-0.049397 -0.105923,-0.1357445 -0.0512,-0.088584 -0.07198,-0.1678978 -0.02033,-0.079572 -0.0095,-0.156863 0.01015,-0.073314 0.05604,-0.1374468 0.04564,-0.064581 0.128405,-0.1124238 0.0264,-0.015258 0.04559,-0.023366 0.01919,-0.00811 0.04089,-0.012894 l 0.04939,0.085453 -0.0045,0.00259 q -0.01641,5.302e-4 -0.04527,0.00946 -0.02867,0.00822 -0.05507,0.023477 -0.09619,0.055602 -0.118544,0.1491026 -0.02261,0.093053 0.02721,0.200938 0.02439,-0.044541 0.05391,-0.077121 0.0297,-0.033286 0.07758,-0.060957 0.0425,-0.024568 0.07937,-0.035135 0.03706,-0.011273 0.08477,-0.00722 0.05515,0.00453 0.09888,0.034762 0.04418,0.02997 0.07858,0.089474 z m -0.08875,0.056078 q -0.02405,-0.041608 -0.05235,-0.061658 -0.02786,-0.020309 -0.06768,-0.024149 -0.02886,-0.00242 -0.0565,0.00759 -0.02764,0.010008 -0.05493,0.025784 -0.03803,0.021982 -0.06552,0.049809 -0.02749,0.027827 -0.05108,0.06653 0.0048,0.01036 0.0098,0.020014 0.0047,0.00921 0.01274,0.023076 0.04086,0.070689 0.07897,0.1035734 0.0383,0.032179 0.07751,0.04115 0.03196,0.00779 0.0611,0.00348 0.02933,-0.00502 0.05752,-0.02131 0.06487,-0.037499 0.07925,-0.098334 0.01412,-0.061283 -0.02881,-0.1355508 z"
         id="path137801"
         style="stroke-width:0.129452" />
    </g>
    <path
       style="fill:#ffffff;stroke:#ffffff;stroke-width:0.264583px;stroke-linecap:butt;stroke-linejoin:miter;stroke-opacity:1"
       d="M 36.667811,18.421741 34.519627,17.918139 V 18.87794 Z"
       id="path92494" />
    <path
       style="fill:#ffffff;stroke:#ffffff;stroke-width:0.264583px;stroke-linecap:butt;stroke-linejoin:miter;stroke-opacity:1"
       d="m 18.423917,36.667914 -0.503601,-2.148185 h 0.9598 z"
       id="path92496" />
    <g
       aria-label="15"
       transform="matrix(2.0438639,0,0,2.0438639,-30.181241,-36.513318)"
       id="text104354"
       style="font-size:1.05833px;line-height:1.25;letter-spacing:0px;word-spacing:0px;fill:#ffffff;stroke-width:0.129452">
      <path
         d="m 26.740237,32.844169 -0.208289,-0.360689 0.06802,-0.03928 0.08011,0.138726 0.44661,-0.257906 -0.08011,-0.138727 0.06086,-0.03514 q 0.01628,0.02819 0.03936,0.05783 0.02353,0.02938 0.04204,0.04077 0.02308,0.01412 0.0468,0.01594 0.02443,0.002 0.05455,-0.013 l 0.04005,0.06936 -0.600552,0.346804 0.07856,0.136042 z"
         id="path137827"
         style="stroke-width:0.129452" />
      <path
         d="m 27.30724,33.337256 q -0.04654,0.02688 -0.09887,0.03442 -0.05233,0.0075 -0.09848,-0.0052 -0.04993,-0.01413 -0.09278,-0.04906 -0.04214,-0.03474 -0.07599,-0.09336 -0.03153,-0.0546 -0.0491,-0.111883 -0.01801,-0.05703 -0.02206,-0.101238 l 0.09442,-0.05453 0.0036,0.0063 q -0.0021,0.05013 0.0098,0.108921 0.01232,0.05853 0.03971,0.105964 0.01835,0.03177 0.04435,0.05614 0.02627,0.02481 0.06208,0.03516 0.03061,0.0086 0.06315,0.0029 0.03279,-0.0052 0.06815,-0.02563 0.03446,-0.0199 0.0512,-0.04568 0.017,-0.02533 0.01917,-0.05463 0.0036,-0.03309 -0.0091,-0.07053 -0.01196,-0.03725 -0.03574,-0.07842 -0.02274,-0.03938 -0.0493,-0.07297 -0.0263,-0.03315 -0.04692,-0.05645 l 0.343236,-0.198211 0.231548,0.400965 -0.07831,0.04522 -0.181671,-0.314596 -0.177212,0.102335 q 0.0129,0.01821 0.02543,0.03783 0.01252,0.01962 0.02105,0.03439 0.03127,0.05415 0.04539,0.100298 0.01457,0.04589 0.01094,0.09334 -0.0039,0.05001 -0.0315,0.09219 -0.02756,0.04217 -0.08619,0.07603 z"
         id="path137829"
         style="stroke-width:0.129452" />
    </g>
    <g
       aria-label="21"
       transform="matrix(2.0438639,0,0,2.0438639,-7.4946544,-37.973821)"
       id="text108357"
       style="font-size:1.05833px;line-height:1.25;letter-spacing:0px;word-spacing:0px;fill:#ffffff;stroke-width:0.129452">
      <path
         d="m 9.5920029,33.65698 -0.2603637,0.451159 -0.093544,-0.05399 q -0.013161,-0.07024 -0.026322,-0.140484 -0.012903,-0.07069 -0.029232,-0.134409 -0.033656,-0.133978 -0.064103,-0.19391 -0.030895,-0.06019 -0.087737,-0.093 -0.051919,-0.02996 -0.1009005,-0.01229 -0.049171,0.01697 -0.084557,0.07829 -0.023505,0.04073 -0.036562,0.09644 -0.013057,0.05571 -0.0096,0.117962 l -0.00258,0.0045 -0.093991,-0.05424 q 0.00267,-0.04082 0.020173,-0.101123 0.017758,-0.06075 0.046429,-0.110434 0.05915,-0.102495 0.1424099,-0.132009 0.082812,-0.02977 0.1674046,0.01904 0.038044,0.02196 0.065482,0.05092 0.027249,0.02826 0.045941,0.0641 0.017676,0.03347 0.030841,0.07269 0.013423,0.03877 0.026724,0.0912 0.019358,0.07501 0.034222,0.151608 0.014417,0.07634 0.026442,0.142344 l 0.2068961,-0.35851 z"
         id="path137832"
         style="stroke-width:0.129452" />
      <path
         d="m 9.9063504,33.112279 -0.2081876,0.360748 -0.068032,-0.03926 0.080072,-0.138749 -0.446683,-0.257781 -0.080072,0.138749 -0.060871,-0.03513 q 0.016273,-0.0282 0.030394,-0.06301 0.013674,-0.03507 0.014279,-0.05679 6.923e-4,-0.02705 -0.0096,-0.0485 -0.010481,-0.02216 -0.038541,-0.04074 l 0.040036,-0.06937 0.6006499,0.346635 0.078522,-0.136064 z"
         id="path137834"
         style="stroke-width:0.129452" />
    </g>
    <g
       aria-label="24"
       transform="matrix(2.0438639,0,0,2.0438639,0.36392166,-29.569504)"
       id="text110077"
       style="font-size:1.05833px;line-height:1.25;letter-spacing:0px;word-spacing:0px;fill:#ffffff;stroke-width:0.129452">
      <path
         d="m 3.142717,27.210422 -0.4510487,0.260554 -0.054024,-0.09352 q 0.023721,-0.06741 0.047441,-0.134827 0.024168,-0.06767 0.041882,-0.131018 0.037836,-0.132859 0.041431,-0.199986 0.00334,-0.06757 -0.029491,-0.124402 -0.029984,-0.05191 -0.081241,-0.06109 -0.051068,-0.0099 -0.112371,0.02552 -0.04072,0.02352 -0.07988,0.06524 -0.03916,0.04172 -0.067294,0.09736 l -0.00447,0.0026 -0.054282,-0.09397 q 0.022723,-0.03401 0.068029,-0.07749 0.045753,-0.04374 0.095422,-0.07243 0.1024704,-0.05919 0.1893333,-0.04313 0.086604,0.01562 0.1354584,0.10019 0.021971,0.03804 0.031255,0.07683 0.00947,0.03809 0.00774,0.07848 -0.00143,0.03782 -0.00963,0.07837 -0.00776,0.04029 -0.02245,0.09234 -0.020738,0.07464 -0.046159,0.148409 -0.02568,0.07332 -0.048266,0.136497 l 0.3584226,-0.207048 z"
         id="path137837"
         style="stroke-width:0.129452" />
      <path
         d="m 3.6322296,26.677594 -0.098891,0.05712 0.1083058,0.18749 -0.085914,0.04963 -0.1083058,-0.187489 -0.3190454,0.184301 -0.059452,-0.102918 0.1054966,-0.562243 0.082334,-0.04756 0.2352227,0.407196 0.098891,-0.05712 z M 3.4060671,26.712754 3.2323642,26.412055 3.1478775,26.8619 Z"
         id="path137839"
         style="stroke-width:0.129452" />
    </g>
    <g
       aria-label="30"
       transform="matrix(2.0438639,0,0,2.0438639,-0.78201718,-7.5280074)"
       id="text126807"
       style="font-size:1.05833px;line-height:1.25;letter-spacing:0px;word-spacing:0px;fill:#ffffff;stroke-width:0.129452">
      <path
         d="m 3.2642672,9.2394906 q 0.010381,0.031643 0.00747,0.068743 -0.00291,0.0371 -0.029507,0.083205 -0.02634,0.045657 -0.064851,0.074149 -0.03851,0.028492 -0.084769,0.03939 -0.051647,0.011965 -0.1060841,8.445e-4 Q 2.9327951,9.494512 2.8786337,9.4632656 2.8231295,9.4312446 2.7771628,9.386828 2.7309378,9.3428591 2.7055097,9.3073086 l 0.053971,-0.093552 0.00671,0.00387 q 0.023586,0.047016 0.065507,0.093275 0.041921,0.046259 0.089816,0.07389 0.0282,0.016269 0.065403,0.025203 0.037203,0.00893 0.067486,0.00194 0.031953,-0.00782 0.055487,-0.025859 0.023982,-0.017784 0.044898,-0.054041 0.020659,-0.035809 0.022449,-0.065799 0.0025,-0.03018 -0.0099,-0.055228 -0.012137,-0.025497 -0.037944,-0.046947 -0.025549,-0.021898 -0.058672,-0.041008 l -0.040285,-0.023241 0.042867,-0.074304 0.031333,0.018076 q 0.068037,0.039252 0.1245915,0.034293 0.05726,-0.00515 0.088764,-0.059757 0.013945,-0.024171 0.013979,-0.048015 2.924e-4,-0.024292 -0.011346,-0.046517 -0.012533,-0.022742 -0.031884,-0.039872 -0.019351,-0.01713 -0.047103,-0.03314 -0.042523,-0.024532 -0.099198,-0.036944 -0.056675,-0.012412 -0.1152086,-0.00919 l -0.00448,-0.00258 0.053971,-0.093552 q 0.040819,0.00267 0.1011261,0.020159 0.061013,0.017301 0.1106984,0.045965 0.04879,0.028147 0.080777,0.058533 0.031987,0.030386 0.050615,0.067383 0.019833,0.040078 0.018835,0.080071 -9.982e-4,0.039993 -0.024497,0.080725 -0.032021,0.055504 -0.095427,0.074408 -0.0627,0.018714 -0.1221638,-0.00127 l -0.00362,0.00627 q 0.01942,0.015976 0.040458,0.043625 0.021296,0.027201 0.030731,0.055314 z"
         id="path137842"
         style="stroke-width:0.129452" />
      <path
         d="M 3.912034,9.5964903 Q 3.8084821,9.7759838 3.7035346,9.8275978 3.599293,9.8790225 3.4811227,9.8108487 3.361162,9.7416419 3.3547223,9.6245741 3.3487302,9.5077645 3.4504745,9.3314044 3.5529934,9.1537014 3.6577515,9.1013815 3.7627678,9.048614 3.8813857,9.117046 q 0.1199607,0.069207 0.1251781,0.1873592 0.00592,0.117963 -0.09453,0.2920851 z M 3.677073,9.7317918 Q 3.713656,9.7045728 3.747175,9.6588818 3.7814,9.6130008 3.821168,9.5440686 3.86042,9.4760316 3.883523,9.4225413 3.907074,9.3693093 3.911102,9.3250993 3.915322,9.2815943 3.898086,9.2483853 3.8813,9.2154343 3.838777,9.1909023 3.796701,9.1666283 3.758878,9.1680753 q -0.037376,0.0017 -0.07389,0.02777 -0.034328,0.024344 -0.070877,0.074253 -0.036101,0.050167 -0.07277,0.1137286 -0.040284,0.069828 -0.062475,0.119668 -0.022191,0.04984 -0.02751,0.096288 -0.00537,0.043436 0.010898,0.077282 0.016717,0.034104 0.061478,0.059928 0.042076,0.024274 0.079899,0.022827 0.037823,-0.00145 0.073443,-0.028028 z"
         id="path137844"
         style="stroke-width:0.129452" />
    </g>
    <g
       aria-label="33"
       transform="matrix(2.0438639,0,0,2.0438639,-8.9454458,0.04764319)"
       id="text129139"
       style="font-size:1.05833px;line-height:1.25;letter-spacing:0px;word-spacing:0px;fill:#ffffff;stroke-width:0.129452">
      <path
         d="m 9.8703401,2.9000704 q -0.00683,0.032594 -0.027897,0.06327 -0.021068,0.030676 -0.067154,0.057307 -0.045638,0.026372 -0.093236,0.031794 -0.047598,0.00542 -0.093109,-0.00827 -0.050711,-0.015459 -0.092296,-0.052306 -0.040879,-0.036658 -0.072163,-0.090798 -0.03206,-0.055482 -0.049663,-0.11693 -0.01805,-0.06119 -0.022299,-0.1046914 l 0.093513,-0.054037 0.00388,0.00671 q -0.00308,0.05251 0.010099,0.1135316 0.013178,0.061021 0.040843,0.1088963 0.016289,0.028188 0.044042,0.054526 0.027753,0.026338 0.057474,0.035425 0.03158,0.00921 0.060982,0.00535 0.029661,-0.00341 0.065903,-0.024355 0.035795,-0.020684 0.052339,-0.045762 0.01725,-0.024889 0.019038,-0.05278 0.00224,-0.02815 -0.00939,-0.059629 -0.011178,-0.031738 -0.030311,-0.064848 l -0.02327,-0.040269 0.074274,-0.042919 0.018099,0.03132 q 0.0393,0.06801 0.090757,0.09199 0.052164,0.024169 0.1067509,-0.00737 0.02416,-0.013962 0.03611,-0.034595 0.0124,-0.020892 0.01343,-0.045959 5.15e-4,-0.025962 -0.0077,-0.050472 -0.0082,-0.02451 -0.02422,-0.05225 -0.02456,-0.042506 -0.06744,-0.081591 -0.042877,-0.039085 -0.09518,-0.065561 l -0.00259,-0.00447 0.093513,-0.054037 q 0.034017,0.022718 0.077501,0.068018 0.04419,0.045488 0.07289,0.095153 0.02818,0.04877 0.04069,0.091078 0.01251,0.042308 0.01015,0.083662 -0.0029,0.044625 -0.02372,0.078762 -0.02086,0.034136 -0.06158,0.057664 -0.05548,0.03206 -0.119846,0.016731 -0.063658,-0.01514 -0.1051634,-0.062179 l -0.00626,0.00362 q 0.00883,0.023545 0.013228,0.058008 0.00484,0.034204 -0.00104,0.063269 z"
         id="path137771"
         style="stroke-width:0.129452" />
      <path
         d="m 10.206972,3.4826276 q -0.0068,0.032594 -0.0279,0.063271 -0.02107,0.030676 -0.06715,0.057307 -0.04564,0.026372 -0.09324,0.031794 -0.047598,0.00542 -0.093109,-0.00827 Q 9.874861,3.6112706 9.833277,3.5744236 9.792398,3.5377646 9.761114,3.4836256 9.729054,3.4281436 9.711451,3.3666956 9.693401,3.3055056 9.689152,3.2620042 l 0.093513,-0.054037 0.00388,0.00671 q -0.00308,0.05251 0.010099,0.1135316 0.013178,0.061021 0.040843,0.1088963 0.016289,0.028188 0.044042,0.054526 0.027753,0.026338 0.057474,0.035425 0.03158,0.00921 0.060982,0.00535 0.02966,-0.00341 0.065902,-0.024355 0.0358,-0.020684 0.05234,-0.045762 0.01725,-0.024889 0.01904,-0.05278 0.0022,-0.02815 -0.0094,-0.059629 -0.01118,-0.031738 -0.03031,-0.064848 l -0.02327,-0.040269 0.07427,-0.042919 0.0181,0.03132 q 0.0393,0.06801 0.09076,0.09199 0.05216,0.024169 0.106751,-0.00737 0.02416,-0.013962 0.03611,-0.034595 0.0124,-0.020892 0.01343,-0.045959 5.16e-4,-0.025962 -0.0077,-0.050472 -0.0082,-0.02451 -0.02422,-0.05225 -0.02456,-0.042506 -0.06744,-0.081591 -0.04288,-0.039085 -0.09518,-0.065561 l -0.0026,-0.00447 0.09351,-0.054037 q 0.03402,0.022719 0.0775,0.068018 0.04419,0.045488 0.07289,0.095153 0.02818,0.04877 0.04069,0.091078 0.01251,0.042308 0.01015,0.083662 -0.0029,0.044625 -0.02372,0.078762 -0.02086,0.034136 -0.06158,0.057664 -0.05548,0.03206 -0.119845,0.016731 -0.06366,-0.01514 -0.105163,-0.062179 l -0.0063,0.00362 q 0.0088,0.023545 0.01323,0.058008 0.0048,0.034205 -10e-4,0.063269 z"
         id="path137773"
         style="stroke-width:0.129452" />
    </g>
  </g>
</svg>
